<?xml version="1.0" encoding="UTF-8" standalone="no"?>
<svg
   enable-background="new 0 0 1024 1024"
   version="1.1"
   viewBox="0 0 1024 1024"
   id="svg206"
   sodipodi:docname="facebook.svg"
   xml:space="preserve"
   width="1024"
   height="1024"
   inkscape:version="1.2 (dc2aeda, 2022-05-15)"
   xmlns:inkscape="http://www.inkscape.org/namespaces/inkscape"
   xmlns:sodipodi="http://sodipodi.sourceforge.net/DTD/sodipodi-0.dtd"
   xmlns:xlink="http://www.w3.org/1999/xlink"
   xmlns="http://www.w3.org/2000/svg"
   xmlns:svg="http://www.w3.org/2000/svg"><defs
     id="defs210"><defs
       id="defs189"><path
         id="a"
         d="m 1023.9,765.15 c 0,5.606 -0.171,17.766 -0.508,27.159 -0.824,22.982 -2.646,52.639 -5.401,66.151 -4.141,20.306 -10.392,39.472 -18.542,55.425 -9.643,18.871 -21.943,35.775 -36.559,50.364 -14.584,14.56 -31.472,26.812 -50.315,36.416 -16.036,8.172 -35.322,14.426 -55.744,18.549 -13.378,2.701 -42.812,4.488 -65.648,5.3 -9.402,0.336 -21.564,0.505 -27.15,0.505 l -504.23,-0.081 c -5.607,0 -17.765,-0.172 -27.158,-0.509 -22.983,-0.824 -52.639,-2.646 -66.152,-5.4 -20.306,-4.142 -39.473,-10.392 -55.425,-18.542 C 92.196,990.843 75.293,978.543 60.704,963.927 46.144,949.343 33.892,932.456 24.289,913.613 16.115,897.576 9.861,878.29 5.738,857.869 3.038,844.491 1.251,815.057 0.438,792.22 0.104,782.819 -0.065,770.657 -0.065,765.072 l 0.08,-504.23 c 0,-5.607 0.171,-17.766 0.508,-27.159 C 1.348,210.7 3.169,181.044 5.924,167.532 10.065,147.226 16.315,128.059 24.466,112.106 34.109,93.235 46.41,76.331 61.025,61.742 75.609,47.183 92.497,34.93 111.34,25.326 127.377,17.154 146.664,10.9 167.085,6.777 c 13.377,-2.701 42.812,-4.488 65.648,-5.3 9.402,-0.335 21.565,-0.504 27.149,-0.504 l 504.23,0.081 c 5.608,0 17.766,0.171 27.159,0.508 22.983,0.825 52.638,2.646 66.152,5.401 20.305,4.141 39.472,10.391 55.425,18.542 18.871,9.643 35.774,21.944 50.363,36.559 14.559,14.584 26.812,31.471 36.415,50.315 8.174,16.037 14.428,35.323 18.551,55.744 2.7,13.378 4.486,42.812 5.3,65.649 0.335,9.402 0.504,21.564 0.504,27.15 l -0.082,504.23 z" /></defs><linearGradient
       id="b"
       x1="512"
       x2="512"
       y1="0.97799999"
       y2="1025"
       gradientUnits="userSpaceOnUse"><stop
         stop-color="#61FD7D"
         offset="0"
         id="stop191" /><stop
         stop-color="#2BB826"
         offset="1"
         id="stop193" /></linearGradient><clipPath
       id="clipPath200"><use
         overflow="visible"
         xlink:href="#a"
         id="use198" /></clipPath><clipPath
       clipPathUnits="userSpaceOnUse"
       id="clipPath759"><path
         d="m -1127.3672,654.7314 h 1280 V -65.268602 h -1280 z"
         id="path761"
         style="stroke-width:0.999998" /></clipPath><clipPath
       clipPathUnits="userSpaceOnUse"
       id="clipPath763"><path
         d="M -1123.248,639.7422 H 156.75195 V -80.257802 H -1123.248 Z"
         id="path765"
         style="stroke-width:0.999998" /></clipPath><clipPath
       clipPathUnits="userSpaceOnUse"
       id="clipPath767"><path
         d="M -1122.4111,623.1953 H 157.58888 v -720 H -1122.4111 Z"
         id="path769"
         style="stroke-width:0.999998" /></clipPath><clipPath
       clipPathUnits="userSpaceOnUse"
       id="clipPath771"><path
         d="M -882.94142,625.4971 H 397.05856 V -94.502897 H -882.94142 Z"
         id="path773"
         style="stroke-width:0.999998" /></clipPath><clipPath
       clipPathUnits="userSpaceOnUse"
       id="clipPath775"><path
         d="M -622.31402,630.1025 H 657.68597 v -720 H -622.31402 Z"
         id="path777"
         style="stroke-width:0.999998" /></clipPath><clipPath
       clipPathUnits="userSpaceOnUse"
       id="clipPath779"><path
         d="M -101.68313,645.0771 H 1178.3169 V -74.922902 H -101.68313 Z"
         id="path781"
         style="stroke-width:0.999998" /></clipPath><clipPath
       clipPathUnits="userSpaceOnUse"
       id="clipPath783"><path
         d="M -101.68313,637.7295 H 1178.3169 V -82.270502 H -101.68313 Z"
         id="path785"
         style="stroke-width:0.999998" /></clipPath><clipPath
       clipPathUnits="userSpaceOnUse"
       id="clipPath787"><path
         d="M -140.84078,645.0771 H 1139.1592 V -74.922902 H -140.84078 Z"
         id="path789"
         style="stroke-width:0.999998" /></clipPath><clipPath
       clipPathUnits="userSpaceOnUse"
       id="clipPath791"><path
         d="M -140.84078,637.7295 H 1139.1592 V -82.270502 H -140.84078 Z"
         id="path793"
         style="stroke-width:0.999998" /></clipPath><clipPath
       clipPathUnits="userSpaceOnUse"
       id="clipPath795"><path
         d="M -140.84078,652.4141 H 1139.1592 V -67.585899 H -140.84078 Z"
         id="path797"
         style="stroke-width:0.999998" /></clipPath><clipPath
       clipPathUnits="userSpaceOnUse"
       id="clipPath799"><path
         d="M -393.43411,652.168 H 886.56587 V -67.831997 H -393.43411 Z"
         id="path801"
         style="stroke-width:0.999998" /></clipPath><clipPath
       clipPathUnits="userSpaceOnUse"
       id="clipPath803"><path
         d="m -124.8447,484.2402 h 1280 v -720 h -1280 z"
         id="path805"
         style="stroke-width:0.999998" /></clipPath><clipPath
       clipPathUnits="userSpaceOnUse"
       id="clipPath807"><path
         d="m -1145.3057,463.2969 h 1280 v -720 h -1280 z"
         id="path809"
         style="stroke-width:0.999998" /></clipPath><clipPath
       clipPathUnits="userSpaceOnUse"
       id="clipPath811"><path
         d="M -418.79049,433.0693 H 861.2095 v -720 H -418.79049 Z"
         id="path813"
         style="stroke-width:0.999998" /></clipPath><clipPath
       clipPathUnits="userSpaceOnUse"
       id="clipPath815"><path
         d="M -909.01562,470.7109 H 370.98436 v -720 H -909.01562 Z"
         id="path817"
         style="stroke-width:0.999998" /></clipPath><clipPath
       clipPathUnits="userSpaceOnUse"
       id="clipPath819"><path
         d="M -128.33843,236.1113 H 1151.6616 v -720 H -128.33843 Z"
         id="path821"
         style="stroke-width:0.999998" /></clipPath><clipPath
       clipPathUnits="userSpaceOnUse"
       id="clipPath823"><path
         d="M -1155.4648,282.2617 H 124.53518 v -720 H -1155.4648 Z"
         id="path825"
         style="stroke-width:0.999998" /></clipPath><clipPath
       clipPathUnits="userSpaceOnUse"
       id="clipPath827"><path
         d="M -1172.3262,267.4888 H 107.67375 v -720 H -1172.3262 Z"
         id="path829"
         style="stroke-width:0.999998" /></clipPath><clipPath
       clipPathUnits="userSpaceOnUse"
       id="clipPath831"><path
         d="M -427.25101,272.0659 H 852.74897 v -720 H -427.25101 Z"
         id="path833"
         style="stroke-width:0.999998" /></clipPath><clipPath
       clipPathUnits="userSpaceOnUse"
       id="clipPath835"><path
         d="M -362.76901,232.562 H 917.23097 v -720 H -362.76901 Z"
         id="path837"
         style="stroke-width:0.999998" /></clipPath><clipPath
       clipPathUnits="userSpaceOnUse"
       id="clipPath839"><path
         d="M -354.20071,270.0269 H 925.79927 v -720 H -354.20071 Z"
         id="path841"
         style="stroke-width:0.999998" /></clipPath><clipPath
       clipPathUnits="userSpaceOnUse"
       id="clipPath843"><path
         d="M -654.04299,456.7979 H 625.95699 v -720 H -654.04299 Z"
         id="path845"
         style="stroke-width:0.999998" /></clipPath><clipPath
       clipPathUnits="userSpaceOnUse"
       id="clipPath847"><path
         d="M -637.53422,479.6494 H 642.46577 v -720 H -637.53422 Z"
         id="path849"
         style="stroke-width:0.999998" /></clipPath><clipPath
       clipPathUnits="userSpaceOnUse"
       id="clipPath851"><path
         d="M -652.18067,272.4907 H 627.81932 v -720 H -652.18067 Z"
         id="path853"
         style="stroke-width:0.999998" /></clipPath><clipPath
       clipPathUnits="userSpaceOnUse"
       id="clipPath855"><path
         d="M -939.99017,258.8608 H 340.00981 v -720 H -939.99017 Z"
         id="path857"
         style="stroke-width:0.999998" /></clipPath><clipPath
       clipPathUnits="userSpaceOnUse"
       id="clipPath859"><path
         d="M -931.56347,108.5342 H 348.43651 v -720 H -931.56347 Z"
         id="path861"
         style="stroke-width:0.999998" /></clipPath><clipPath
       clipPathUnits="userSpaceOnUse"
       id="clipPath863"><path
         d="M -672.47267,68.1187 H 607.52732 v -720 H -672.47267 Z"
         id="path865"
         style="stroke-width:0.999998" /></clipPath><clipPath
       clipPathUnits="userSpaceOnUse"
       id="clipPath867"><path
         d="M -1157.7793,86.323702 H 122.22068 V -633.6763 H -1157.7793 Z"
         id="path869"
         style="stroke-width:0.999998" /></clipPath><clipPath
       clipPathUnits="userSpaceOnUse"
       id="clipPath871"><path
         d="M -1177.9834,86.921399 H 102.01658 V -633.0786 H -1177.9834 Z"
         id="path873"
         style="stroke-width:0.999998" /></clipPath><clipPath
       clipPathUnits="userSpaceOnUse"
       id="clipPath875"><path
         d="M -384.54541,75.850101 H 895.45457 V -644.1499 H -384.54541 Z"
         id="path877"
         style="stroke-width:0.999998" /></clipPath><clipPath
       clipPathUnits="userSpaceOnUse"
       id="clipPath879"><path
         d="M -150.65228,71.5117 H 1129.3477 v -720 H -150.65228 Z"
         id="path881"
         style="stroke-width:0.999998" /></clipPath><clipPath
       clipPathUnits="userSpaceOnUse"
       id="clipPath883"><path
         d="m -127.4028,102.1865 h 1280 v -720 h -1280 z"
         id="path885"
         style="stroke-width:0.999998" /></clipPath><clipPath
       clipPathUnits="userSpaceOnUse"
       id="clipPath887"><path
         d="m -156.396,90.437002 h 1280 V -629.563 h -1280 z"
         id="path889"
         style="stroke-width:0.999998" /></clipPath></defs><sodipodi:namedview
     id="namedview208"
     pagecolor="#ffffff"
     bordercolor="#000000"
     borderopacity="0.25"
     inkscape:showpageshadow="2"
     inkscape:pageopacity="0.0"
     inkscape:pagecheckerboard="0"
     inkscape:deskcolor="#d1d1d1"
     showgrid="false"
     inkscape:zoom="0.086662013"
     inkscape:cx="548.10636"
     inkscape:cy="1800.0967"
     inkscape:window-width="1366"
     inkscape:window-height="705"
     inkscape:window-x="0"
     inkscape:window-y="0"
     inkscape:window-maximized="1"
     inkscape:current-layer="svg206" /><use
     fill="url(#b)"
     overflow="visible"
     xlink:href="#a"
     id="use196"
     style="fill:#3b5796;fill-opacity:1" /><g
     id="g431"
     transform="matrix(10.85508,0,0,-10.85508,627.03197,466.09231)"
     clip-path="url(#clipPath875)"
     style="fill:#ffffff"><path
       d="m 0,0 v 5.872 c 0,2.861 1.908,3.527 3.247,3.527 h 8.237 V 21.98 L 0.14,22.029 c -12.591,0 -15.453,-9.385 -15.453,-15.391 V 0 h -7.282 v -8.871 -5.812 h 7.344 v -36.713 h 14.684 v 36.713 H 10.332 L 10.859,-8.916 11.67,0 Z"
       style="fill:#ffffff;fill-opacity:1;fill-rule:nonzero;stroke:none"
       id="path433" /></g></svg>
